# MagicaVoxel @ Ephtracy

# group
o 

# material
mtllib HouseBlock.mtl
usemtl palette

# normals
vn -1 0 0
vn 1 0 0
vn 0 0 1
vn 0 0 -1
vn 0 -1 0
vn 0 1 0

# texcoords
vt 0.275391 0.5
vt 0.451172 0.5
vt 0.978516 0.5
vt 0.986328 0.5

# verts
v -2 0.1 2
v -2 0.1 -2
v -2 1.9 2
v -2 1.9 -2
v -2 2.1 2
v -2 2.1 -2
v -2 3.9 2
v -2 3.9 -2
v -1.9 0 1.9
v -1.9 0 -1.9
v -1.9 0.1 1.9
v -1.9 0.1 -1.9
v -1.9 1.9 1.9
v -1.9 1.9 -1.9
v -1.9 2.1 1.9
v -1.9 2.1 -1.9
v -1.9 3.9 1.9
v -1.9 3.9 -1.9
v -1.9 4 1.9
v -1.9 4 -1.9
v -1.1 0.6 2
v -1.1 0.6 1.9
v -1.1 0.6 -1.9
v -1.1 0.6 -2
v -1.1 1 1.9
v -1.1 1 -1.9
v -1.1 1.2 1.9
v -1.1 1.2 -1.9
v -1.1 1.6 2
v -1.1 1.6 1.9
v -1.1 1.6 -1.9
v -1.1 1.6 -2
v -1.1 2.4 2
v -1.1 2.4 1.9
v -1.1 2.4 -1.9
v -1.1 2.4 -2
v -1.1 2.8 1.9
v -1.1 2.8 -1.9
v -1.1 3 1.9
v -1.1 3 -1.9
v -1.1 3.4 2
v -1.1 3.4 1.9
v -1.1 3.4 -1.9
v -1.1 3.4 -2
v -0.4 0.6 2
v -0.4 0.6 1.9
v -0.4 0.6 -1.9
v -0.4 0.6 -2
v -0.4 1 1.9
v -0.4 1 -1.9
v -0.4 1.2 1.9
v -0.4 1.2 -1.9
v -0.4 1.6 2
v -0.4 1.6 1.9
v -0.4 1.6 -1.9
v -0.4 1.6 -2
v -0.4 2.4 2
v -0.4 2.4 1.9
v -0.4 2.4 -1.9
v -0.4 2.4 -2
v -0.4 2.8 1.9
v -0.4 2.8 -1.9
v -0.4 3 1.9
v -0.4 3 -1.9
v -0.4 3.4 2
v -0.4 3.4 1.9
v -0.4 3.4 -1.9
v -0.4 3.4 -2
v 0.8 0.6 2
v 0.8 0.6 1.9
v 0.8 0.6 -1.9
v 0.8 0.6 -2
v 0.8 1 1.9
v 0.8 1 -1.9
v 0.8 1.2 1.9
v 0.8 1.2 -1.9
v 0.8 1.6 2
v 0.8 1.6 1.9
v 0.8 1.6 -1.9
v 0.8 1.6 -2
v 0.8 2.4 2
v 0.8 2.4 1.9
v 0.8 2.4 -1.9
v 0.8 2.4 -2
v 0.8 2.8 1.9
v 0.8 2.8 -1.9
v 0.8 3 1.9
v 0.8 3 -1.9
v 0.8 3.4 2
v 0.8 3.4 1.9
v 0.8 3.4 -1.9
v 0.8 3.4 -2
v 1.5 0.6 2
v 1.5 0.6 1.9
v 1.5 0.6 -1.9
v 1.5 0.6 -2
v 1.5 1 1.9
v 1.5 1 -1.9
v 1.5 1.2 1.9
v 1.5 1.2 -1.9
v 1.5 1.6 2
v 1.5 1.6 1.9
v 1.5 1.6 -1.9
v 1.5 1.6 -2
v 1.5 2.4 2
v 1.5 2.4 1.9
v 1.5 2.4 -1.9
v 1.5 2.4 -2
v 1.5 2.8 1.9
v 1.5 2.8 -1.9
v 1.5 3 1.9
v 1.5 3 -1.9
v 1.5 3.4 2
v 1.5 3.4 1.9
v 1.5 3.4 -1.9
v 1.5 3.4 -2
v -1.5 0.6 2
v -1.5 0.6 1.9
v -1.5 0.6 -1.9
v -1.5 0.6 -2
v -1.5 1 1.9
v -1.5 1 -1.9
v -1.5 1.2 1.9
v -1.5 1.2 -1.9
v -1.5 1.6 2
v -1.5 1.6 1.9
v -1.5 1.6 -1.9
v -1.5 1.6 -2
v -1.5 2.4 2
v -1.5 2.4 1.9
v -1.5 2.4 -1.9
v -1.5 2.4 -2
v -1.5 2.8 1.9
v -1.5 2.8 -1.9
v -1.5 3 1.9
v -1.5 3 -1.9
v -1.5 3.4 2
v -1.5 3.4 1.9
v -1.5 3.4 -1.9
v -1.5 3.4 -2
v -0.8 0.6 2
v -0.8 0.6 1.9
v -0.8 0.6 -1.9
v -0.8 0.6 -2
v -0.8 1 1.9
v -0.8 1 -1.9
v -0.8 1.2 1.9
v -0.8 1.2 -1.9
v -0.8 1.6 2
v -0.8 1.6 1.9
v -0.8 1.6 -1.9
v -0.8 1.6 -2
v -0.8 2.4 2
v -0.8 2.4 1.9
v -0.8 2.4 -1.9
v -0.8 2.4 -2
v -0.8 2.8 1.9
v -0.8 2.8 -1.9
v -0.8 3 1.9
v -0.8 3 -1.9
v -0.8 3.4 2
v -0.8 3.4 1.9
v -0.8 3.4 -1.9
v -0.8 3.4 -2
v 0.4 0.6 2
v 0.4 0.6 1.9
v 0.4 0.6 -1.9
v 0.4 0.6 -2
v 0.4 1 1.9
v 0.4 1 -1.9
v 0.4 1.2 1.9
v 0.4 1.2 -1.9
v 0.4 1.6 2
v 0.4 1.6 1.9
v 0.4 1.6 -1.9
v 0.4 1.6 -2
v 0.4 2.4 2
v 0.4 2.4 1.9
v 0.4 2.4 -1.9
v 0.4 2.4 -2
v 0.4 2.8 1.9
v 0.4 2.8 -1.9
v 0.4 3 1.9
v 0.4 3 -1.9
v 0.4 3.4 2
v 0.4 3.4 1.9
v 0.4 3.4 -1.9
v 0.4 3.4 -2
v 1.1 0.6 2
v 1.1 0.6 1.9
v 1.1 0.6 -1.9
v 1.1 0.6 -2
v 1.1 1 1.9
v 1.1 1 -1.9
v 1.1 1.2 1.9
v 1.1 1.2 -1.9
v 1.1 1.6 2
v 1.1 1.6 1.9
v 1.1 1.6 -1.9
v 1.1 1.6 -2
v 1.1 2.4 2
v 1.1 2.4 1.9
v 1.1 2.4 -1.9
v 1.1 2.4 -2
v 1.1 2.8 1.9
v 1.1 2.8 -1.9
v 1.1 3 1.9
v 1.1 3 -1.9
v 1.1 3.4 2
v 1.1 3.4 1.9
v 1.1 3.4 -1.9
v 1.1 3.4 -2
v 1.9 0 1.9
v 1.9 0 -1.9
v 1.9 0.1 1.9
v 1.9 0.1 -1.9
v 1.9 1.9 1.9
v 1.9 1.9 -1.9
v 1.9 2.1 1.9
v 1.9 2.1 -1.9
v 1.9 3.9 1.9
v 1.9 3.9 -1.9
v 1.9 4 1.9
v 1.9 4 -1.9
v 2 0.1 2
v 2 0.1 -2
v 2 1.9 2
v 2 1.9 -2
v 2 2.1 2
v 2 2.1 -2
v 2 3.9 2
v 2 3.9 -2
v -2 0.1 2
v -2 1.9 2
v -2 2.1 2
v -2 3.9 2
v -1.6 0.5 2
v -1.6 1.7 2
v -1.6 2.3 2
v -1.6 3.5 2
v -1.5 0.6 2
v -1.5 1.6 2
v -1.5 2.4 2
v -1.5 3.4 2
v -1.1 0.6 2
v -1.1 1.6 2
v -1.1 2.4 2
v -1.1 3.4 2
v -1 0.5 2
v -1 1.7 2
v -1 2.3 2
v -1 3.5 2
v -0.9 0.5 2
v -0.9 1.7 2
v -0.9 2.3 2
v -0.9 3.5 2
v -0.8 0.6 2
v -0.8 1.6 2
v -0.8 2.4 2
v -0.8 3.4 2
v -0.4 0.6 2
v -0.4 1.6 2
v -0.4 2.4 2
v -0.4 3.4 2
v -0.3 0.5 2
v -0.3 1.7 2
v -0.3 2.3 2
v -0.3 3.5 2
v 0.3 0.5 2
v 0.3 1.7 2
v 0.3 2.3 2
v 0.3 3.5 2
v 0.4 0.6 2
v 0.4 1.6 2
v 0.4 2.4 2
v 0.4 3.4 2
v 0.8 0.6 2
v 0.8 1.6 2
v 0.8 2.4 2
v 0.8 3.4 2
v 0.9 0.5 2
v 0.9 1.7 2
v 0.9 2.3 2
v 0.9 3.5 2
v 1 0.5 2
v 1 1.7 2
v 1 2.3 2
v 1 3.5 2
v 1.1 0.6 2
v 1.1 1.6 2
v 1.1 2.4 2
v 1.1 3.4 2
v 1.5 0.6 2
v 1.5 1.6 2
v 1.5 2.4 2
v 1.5 3.4 2
v 1.6 0.5 2
v 1.6 1.7 2
v 1.6 2.3 2
v 1.6 3.5 2
v 2 0.1 2
v 2 1.9 2
v 2 2.1 2
v 2 3.9 2
v -1.9 0 1.9
v -1.9 0.1 1.9
v -1.9 1.9 1.9
v -1.9 2.1 1.9
v -1.9 3.9 1.9
v -1.9 4 1.9
v -1.5 0.6 1.9
v -1.5 1 1.9
v -1.5 1.2 1.9
v -1.5 1.6 1.9
v -1.5 2.4 1.9
v -1.5 2.8 1.9
v -1.5 3 1.9
v -1.5 3.4 1.9
v -1.1 0.6 1.9
v -1.1 1 1.9
v -1.1 1.2 1.9
v -1.1 1.6 1.9
v -1.1 2.4 1.9
v -1.1 2.8 1.9
v -1.1 3 1.9
v -1.1 3.4 1.9
v -0.8 0.6 1.9
v -0.8 1 1.9
v -0.8 1.2 1.9
v -0.8 1.6 1.9
v -0.8 2.4 1.9
v -0.8 2.8 1.9
v -0.8 3 1.9
v -0.8 3.4 1.9
v -0.4 0.6 1.9
v -0.4 1 1.9
v -0.4 1.2 1.9
v -0.4 1.6 1.9
v -0.4 2.4 1.9
v -0.4 2.8 1.9
v -0.4 3 1.9
v -0.4 3.4 1.9
v 0.4 0.6 1.9
v 0.4 1 1.9
v 0.4 1.2 1.9
v 0.4 1.6 1.9
v 0.4 2.4 1.9
v 0.4 2.8 1.9
v 0.4 3 1.9
v 0.4 3.4 1.9
v 0.8 0.6 1.9
v 0.8 1 1.9
v 0.8 1.2 1.9
v 0.8 1.6 1.9
v 0.8 2.4 1.9
v 0.8 2.8 1.9
v 0.8 3 1.9
v 0.8 3.4 1.9
v 1.1 0.6 1.9
v 1.1 1 1.9
v 1.1 1.2 1.9
v 1.1 1.6 1.9
v 1.1 2.4 1.9
v 1.1 2.8 1.9
v 1.1 3 1.9
v 1.1 3.4 1.9
v 1.5 0.6 1.9
v 1.5 1 1.9
v 1.5 1.2 1.9
v 1.5 1.6 1.9
v 1.5 2.4 1.9
v 1.5 2.8 1.9
v 1.5 3 1.9
v 1.5 3.4 1.9
v 1.9 0 1.9
v 1.9 0.1 1.9
v 1.9 1.9 1.9
v 1.9 2.1 1.9
v 1.9 3.9 1.9
v 1.9 4 1.9
v -1.9 0 -1.9
v -1.9 0.1 -1.9
v -1.9 1.9 -1.9
v -1.9 2.1 -1.9
v -1.9 3.9 -1.9
v -1.9 4 -1.9
v -1.5 0.6 -1.9
v -1.5 1 -1.9
v -1.5 1.2 -1.9
v -1.5 1.6 -1.9
v -1.5 2.4 -1.9
v -1.5 2.8 -1.9
v -1.5 3 -1.9
v -1.5 3.4 -1.9
v -1.1 0.6 -1.9
v -1.1 1 -1.9
v -1.1 1.2 -1.9
v -1.1 1.6 -1.9
v -1.1 2.4 -1.9
v -1.1 2.8 -1.9
v -1.1 3 -1.9
v -1.1 3.4 -1.9
v -0.8 0.6 -1.9
v -0.8 1 -1.9
v -0.8 1.2 -1.9
v -0.8 1.6 -1.9
v -0.8 2.4 -1.9
v -0.8 2.8 -1.9
v -0.8 3 -1.9
v -0.8 3.4 -1.9
v -0.4 0.6 -1.9
v -0.4 1 -1.9
v -0.4 1.2 -1.9
v -0.4 1.6 -1.9
v -0.4 2.4 -1.9
v -0.4 2.8 -1.9
v -0.4 3 -1.9
v -0.4 3.4 -1.9
v 0.4 0.6 -1.9
v 0.4 1 -1.9
v 0.4 1.2 -1.9
v 0.4 1.6 -1.9
v 0.4 2.4 -1.9
v 0.4 2.8 -1.9
v 0.4 3 -1.9
v 0.4 3.4 -1.9
v 0.8 0.6 -1.9
v 0.8 1 -1.9
v 0.8 1.2 -1.9
v 0.8 1.6 -1.9
v 0.8 2.4 -1.9
v 0.8 2.8 -1.9
v 0.8 3 -1.9
v 0.8 3.4 -1.9
v 1.1 0.6 -1.9
v 1.1 1 -1.9
v 1.1 1.2 -1.9
v 1.1 1.6 -1.9
v 1.1 2.4 -1.9
v 1.1 2.8 -1.9
v 1.1 3 -1.9
v 1.1 3.4 -1.9
v 1.5 0.6 -1.9
v 1.5 1 -1.9
v 1.5 1.2 -1.9
v 1.5 1.6 -1.9
v 1.5 2.4 -1.9
v 1.5 2.8 -1.9
v 1.5 3 -1.9
v 1.5 3.4 -1.9
v 1.9 0 -1.9
v 1.9 0.1 -1.9
v 1.9 1.9 -1.9
v 1.9 2.1 -1.9
v 1.9 3.9 -1.9
v 1.9 4 -1.9
v -2 0.1 -2
v -2 1.9 -2
v -2 2.1 -2
v -2 3.9 -2
v -1.6 0.5 -2
v -1.6 1.7 -2
v -1.6 2.3 -2
v -1.6 3.5 -2
v -1.5 0.6 -2
v -1.5 1.6 -2
v -1.5 2.4 -2
v -1.5 3.4 -2
v -1.1 0.6 -2
v -1.1 1.6 -2
v -1.1 2.4 -2
v -1.1 3.4 -2
v -1 0.5 -2
v -1 1.7 -2
v -1 2.3 -2
v -1 3.5 -2
v -0.9 0.5 -2
v -0.9 1.7 -2
v -0.9 2.3 -2
v -0.9 3.5 -2
v -0.8 0.6 -2
v -0.8 1.6 -2
v -0.8 2.4 -2
v -0.8 3.4 -2
v -0.4 0.6 -2
v -0.4 1.6 -2
v -0.4 2.4 -2
v -0.4 3.4 -2
v -0.3 0.5 -2
v -0.3 1.7 -2
v -0.3 2.3 -2
v -0.3 3.5 -2
v 0.3 0.5 -2
v 0.3 1.7 -2
v 0.3 2.3 -2
v 0.3 3.5 -2
v 0.4 0.6 -2
v 0.4 1.6 -2
v 0.4 2.4 -2
v 0.4 3.4 -2
v 0.8 0.6 -2
v 0.8 1.6 -2
v 0.8 2.4 -2
v 0.8 3.4 -2
v 0.9 0.5 -2
v 0.9 1.7 -2
v 0.9 2.3 -2
v 0.9 3.5 -2
v 1 0.5 -2
v 1 1.7 -2
v 1 2.3 -2
v 1 3.5 -2
v 1.1 0.6 -2
v 1.1 1.6 -2
v 1.1 2.4 -2
v 1.1 3.4 -2
v 1.5 0.6 -2
v 1.5 1.6 -2
v 1.5 2.4 -2
v 1.5 3.4 -2
v 1.6 0.5 -2
v 1.6 1.7 -2
v 1.6 2.3 -2
v 1.6 3.5 -2
v 2 0.1 -2
v 2 1.9 -2
v 2 2.1 -2
v 2 3.9 -2
v -1.9 0 1.9
v 1.9 0 1.9
v -1.9 0 -1.9
v 1.9 0 -1.9
v -2 0.1 2
v 2 0.1 2
v -1.9 0.1 1.9
v 1.9 0.1 1.9
v -1.9 0.1 -1.9
v 1.9 0.1 -1.9
v -2 0.1 -2
v 2 0.1 -2
v -1.5 1.6 2
v -1.1 1.6 2
v -0.8 1.6 2
v -0.4 1.6 2
v 0.4 1.6 2
v 0.8 1.6 2
v 1.1 1.6 2
v 1.5 1.6 2
v -1.5 1.6 1.9
v -1.1 1.6 1.9
v -0.8 1.6 1.9
v -0.4 1.6 1.9
v 0.4 1.6 1.9
v 0.8 1.6 1.9
v 1.1 1.6 1.9
v 1.5 1.6 1.9
v -1.5 1.6 -1.9
v -1.1 1.6 -1.9
v -0.8 1.6 -1.9
v -0.4 1.6 -1.9
v 0.4 1.6 -1.9
v 0.8 1.6 -1.9
v 1.1 1.6 -1.9
v 1.5 1.6 -1.9
v -1.5 1.6 -2
v -1.1 1.6 -2
v -0.8 1.6 -2
v -0.4 1.6 -2
v 0.4 1.6 -2
v 0.8 1.6 -2
v 1.1 1.6 -2
v 1.5 1.6 -2
v -2 2.1 2
v 2 2.1 2
v -1.9 2.1 1.9
v 1.9 2.1 1.9
v -1.9 2.1 -1.9
v 1.9 2.1 -1.9
v -2 2.1 -2
v 2 2.1 -2
v -1.5 3.4 2
v -1.1 3.4 2
v -0.8 3.4 2
v -0.4 3.4 2
v 0.4 3.4 2
v 0.8 3.4 2
v 1.1 3.4 2
v 1.5 3.4 2
v -1.5 3.4 1.9
v -1.1 3.4 1.9
v -0.8 3.4 1.9
v -0.4 3.4 1.9
v 0.4 3.4 1.9
v 0.8 3.4 1.9
v 1.1 3.4 1.9
v 1.5 3.4 1.9
v -1.5 3.4 -1.9
v -1.1 3.4 -1.9
v -0.8 3.4 -1.9
v -0.4 3.4 -1.9
v 0.4 3.4 -1.9
v 0.8 3.4 -1.9
v 1.1 3.4 -1.9
v 1.5 3.4 -1.9
v -1.5 3.4 -2
v -1.1 3.4 -2
v -0.8 3.4 -2
v -0.4 3.4 -2
v 0.4 3.4 -2
v 0.8 3.4 -2
v 1.1 3.4 -2
v 1.5 3.4 -2
v -1.5 0.6 2
v -1.1 0.6 2
v -0.8 0.6 2
v -0.4 0.6 2
v 0.4 0.6 2
v 0.8 0.6 2
v 1.1 0.6 2
v 1.5 0.6 2
v -1.5 0.6 1.9
v -1.1 0.6 1.9
v -0.8 0.6 1.9
v -0.4 0.6 1.9
v 0.4 0.6 1.9
v 0.8 0.6 1.9
v 1.1 0.6 1.9
v 1.5 0.6 1.9
v -1.5 0.6 -1.9
v -1.1 0.6 -1.9
v -0.8 0.6 -1.9
v -0.4 0.6 -1.9
v 0.4 0.6 -1.9
v 0.8 0.6 -1.9
v 1.1 0.6 -1.9
v 1.5 0.6 -1.9
v -1.5 0.6 -2
v -1.1 0.6 -2
v -0.8 0.6 -2
v -0.4 0.6 -2
v 0.4 0.6 -2
v 0.8 0.6 -2
v 1.1 0.6 -2
v 1.5 0.6 -2
v -2 1.9 2
v 2 1.9 2
v -1.9 1.9 1.9
v 1.9 1.9 1.9
v -1.9 1.9 -1.9
v 1.9 1.9 -1.9
v -2 1.9 -2
v 2 1.9 -2
v -1.5 2.4 2
v -1.1 2.4 2
v -0.8 2.4 2
v -0.4 2.4 2
v 0.4 2.4 2
v 0.8 2.4 2
v 1.1 2.4 2
v 1.5 2.4 2
v -1.5 2.4 1.9
v -1.1 2.4 1.9
v -0.8 2.4 1.9
v -0.4 2.4 1.9
v 0.4 2.4 1.9
v 0.8 2.4 1.9
v 1.1 2.4 1.9
v 1.5 2.4 1.9
v -1.5 2.4 -1.9
v -1.1 2.4 -1.9
v -0.8 2.4 -1.9
v -0.4 2.4 -1.9
v 0.4 2.4 -1.9
v 0.8 2.4 -1.9
v 1.1 2.4 -1.9
v 1.5 2.4 -1.9
v -1.5 2.4 -2
v -1.1 2.4 -2
v -0.8 2.4 -2
v -0.4 2.4 -2
v 0.4 2.4 -2
v 0.8 2.4 -2
v 1.1 2.4 -2
v 1.5 2.4 -2
v -2 3.9 2
v 2 3.9 2
v -1.9 3.9 1.9
v 1.9 3.9 1.9
v -1.9 3.9 -1.9
v 1.9 3.9 -1.9
v -2 3.9 -2
v 2 3.9 -2
v -1.9 4 1.9
v 1.9 4 1.9
v -1.9 4 -1.9
v 1.9 4 -1.9

# faces
f 3/1/1 2/1/1 1/1/1
f 4/1/1 2/1/1 3/1/1
f 7/1/1 6/1/1 5/1/1
f 8/1/1 6/1/1 7/1/1
f 11/3/1 10/3/1 9/3/1
f 12/3/1 10/3/1 11/3/1
f 15/3/1 14/3/1 13/3/1
f 16/3/1 14/3/1 15/3/1
f 19/3/1 18/3/1 17/3/1
f 20/3/1 18/3/1 19/3/1
f 25/4/1 22/4/1 21/4/1
f 26/4/1 24/4/1 23/4/1
f 27/4/1 25/4/1 21/4/1
f 28/4/1 24/4/1 26/4/1
f 29/4/1 27/4/1 21/4/1
f 30/4/1 27/4/1 29/4/1
f 31/4/1 24/4/1 28/4/1
f 32/4/1 24/4/1 31/4/1
f 37/4/1 34/4/1 33/4/1
f 38/4/1 36/4/1 35/4/1
f 39/4/1 37/4/1 33/4/1
f 40/4/1 36/4/1 38/4/1
f 41/4/1 39/4/1 33/4/1
f 42/4/1 39/4/1 41/4/1
f 43/4/1 36/4/1 40/4/1
f 44/4/1 36/4/1 43/4/1
f 49/4/1 46/4/1 45/4/1
f 50/4/1 48/4/1 47/4/1
f 51/4/1 49/4/1 45/4/1
f 52/4/1 48/4/1 50/4/1
f 53/4/1 51/4/1 45/4/1
f 54/4/1 51/4/1 53/4/1
f 55/4/1 48/4/1 52/4/1
f 56/4/1 48/4/1 55/4/1
f 61/4/1 58/4/1 57/4/1
f 62/4/1 60/4/1 59/4/1
f 63/4/1 61/4/1 57/4/1
f 64/4/1 60/4/1 62/4/1
f 65/4/1 63/4/1 57/4/1
f 66/4/1 63/4/1 65/4/1
f 67/4/1 60/4/1 64/4/1
f 68/4/1 60/4/1 67/4/1
f 73/4/1 70/4/1 69/4/1
f 74/4/1 72/4/1 71/4/1
f 75/4/1 73/4/1 69/4/1
f 76/4/1 72/4/1 74/4/1
f 77/4/1 75/4/1 69/4/1
f 78/4/1 75/4/1 77/4/1
f 79/4/1 72/4/1 76/4/1
f 80/4/1 72/4/1 79/4/1
f 85/4/1 82/4/1 81/4/1
f 86/4/1 84/4/1 83/4/1
f 87/4/1 85/4/1 81/4/1
f 88/4/1 84/4/1 86/4/1
f 89/4/1 87/4/1 81/4/1
f 90/4/1 87/4/1 89/4/1
f 91/4/1 84/4/1 88/4/1
f 92/4/1 84/4/1 91/4/1
f 97/4/1 94/4/1 93/4/1
f 98/4/1 96/4/1 95/4/1
f 99/4/1 97/4/1 93/4/1
f 100/4/1 96/4/1 98/4/1
f 101/4/1 99/4/1 93/4/1
f 102/4/1 99/4/1 101/4/1
f 103/4/1 96/4/1 100/4/1
f 104/4/1 96/4/1 103/4/1
f 109/4/1 106/4/1 105/4/1
f 110/4/1 108/4/1 107/4/1
f 111/4/1 109/4/1 105/4/1
f 112/4/1 108/4/1 110/4/1
f 113/4/1 111/4/1 105/4/1
f 114/4/1 111/4/1 113/4/1
f 115/4/1 108/4/1 112/4/1
f 116/4/1 108/4/1 115/4/1
f 117/4/2 118/4/2 121/4/2
f 119/4/2 120/4/2 122/4/2
f 117/4/2 121/4/2 123/4/2
f 122/4/2 120/4/2 124/4/2
f 117/4/2 123/4/2 125/4/2
f 125/4/2 123/4/2 126/4/2
f 124/4/2 120/4/2 127/4/2
f 127/4/2 120/4/2 128/4/2
f 129/4/2 130/4/2 133/4/2
f 131/4/2 132/4/2 134/4/2
f 129/4/2 133/4/2 135/4/2
f 134/4/2 132/4/2 136/4/2
f 129/4/2 135/4/2 137/4/2
f 137/4/2 135/4/2 138/4/2
f 136/4/2 132/4/2 139/4/2
f 139/4/2 132/4/2 140/4/2
f 141/4/2 142/4/2 145/4/2
f 143/4/2 144/4/2 146/4/2
f 141/4/2 145/4/2 147/4/2
f 146/4/2 144/4/2 148/4/2
f 141/4/2 147/4/2 149/4/2
f 149/4/2 147/4/2 150/4/2
f 148/4/2 144/4/2 151/4/2
f 151/4/2 144/4/2 152/4/2
f 153/4/2 154/4/2 157/4/2
f 155/4/2 156/4/2 158/4/2
f 153/4/2 157/4/2 159/4/2
f 158/4/2 156/4/2 160/4/2
f 153/4/2 159/4/2 161/4/2
f 161/4/2 159/4/2 162/4/2
f 160/4/2 156/4/2 163/4/2
f 163/4/2 156/4/2 164/4/2
f 165/4/2 166/4/2 169/4/2
f 167/4/2 168/4/2 170/4/2
f 165/4/2 169/4/2 171/4/2
f 170/4/2 168/4/2 172/4/2
f 165/4/2 171/4/2 173/4/2
f 173/4/2 171/4/2 174/4/2
f 172/4/2 168/4/2 175/4/2
f 175/4/2 168/4/2 176/4/2
f 177/4/2 178/4/2 181/4/2
f 179/4/2 180/4/2 182/4/2
f 177/4/2 181/4/2 183/4/2
f 182/4/2 180/4/2 184/4/2
f 177/4/2 183/4/2 185/4/2
f 185/4/2 183/4/2 186/4/2
f 184/4/2 180/4/2 187/4/2
f 187/4/2 180/4/2 188/4/2
f 189/4/2 190/4/2 193/4/2
f 191/4/2 192/4/2 194/4/2
f 189/4/2 193/4/2 195/4/2
f 194/4/2 192/4/2 196/4/2
f 189/4/2 195/4/2 197/4/2
f 197/4/2 195/4/2 198/4/2
f 196/4/2 192/4/2 199/4/2
f 199/4/2 192/4/2 200/4/2
f 201/4/2 202/4/2 205/4/2
f 203/4/2 204/4/2 206/4/2
f 201/4/2 205/4/2 207/4/2
f 206/4/2 204/4/2 208/4/2
f 201/4/2 207/4/2 209/4/2
f 209/4/2 207/4/2 210/4/2
f 208/4/2 204/4/2 211/4/2
f 211/4/2 204/4/2 212/4/2
f 213/3/2 214/3/2 215/3/2
f 215/3/2 214/3/2 216/3/2
f 217/3/2 218/3/2 219/3/2
f 219/3/2 218/3/2 220/3/2
f 221/3/2 222/3/2 223/3/2
f 223/3/2 222/3/2 224/3/2
f 225/1/2 226/1/2 227/1/2
f 227/1/2 226/1/2 228/1/2
f 229/1/2 230/1/2 231/1/2
f 231/1/2 230/1/2 232/1/2
f 237/1/3 234/1/3 233/1/3
f 238/1/3 234/1/3 237/1/3
f 239/1/3 236/1/3 235/1/3
f 240/1/3 236/1/3 239/1/3
f 241/4/3 238/4/3 237/4/3
f 242/4/3 238/4/3 241/4/3
f 243/4/3 240/4/3 239/4/3
f 244/4/3 240/4/3 243/4/3
f 245/4/3 241/4/3 237/4/3
f 246/4/3 238/4/3 242/4/3
f 247/4/3 243/4/3 239/4/3
f 248/4/3 240/4/3 244/4/3
f 249/1/3 237/1/3 233/1/3
f 249/4/3 245/4/3 237/4/3
f 249/4/3 246/4/3 245/4/3
f 250/1/3 234/1/3 238/1/3
f 250/4/3 246/4/3 249/4/3
f 250/4/3 238/4/3 246/4/3
f 251/4/3 248/4/3 247/4/3
f 251/1/3 239/1/3 235/1/3
f 251/4/3 247/4/3 239/4/3
f 252/1/3 236/1/3 240/1/3
f 252/4/3 248/4/3 251/4/3
f 252/4/3 240/4/3 248/4/3
f 253/1/3 249/1/3 233/1/3
f 253/1/3 250/1/3 249/1/3
f 254/1/3 234/1/3 250/1/3
f 254/1/3 250/1/3 253/1/3
f 255/1/3 251/1/3 235/1/3
f 255/1/3 252/1/3 251/1/3
f 256/1/3 236/1/3 252/1/3
f 256/1/3 252/1/3 255/1/3
f 257/4/3 254/4/3 253/4/3
f 258/4/3 254/4/3 257/4/3
f 259/4/3 256/4/3 255/4/3
f 260/4/3 256/4/3 259/4/3
f 261/4/3 257/4/3 253/4/3
f 262/4/3 254/4/3 258/4/3
f 263/4/3 259/4/3 255/4/3
f 264/4/3 256/4/3 260/4/3
f 265/1/3 253/1/3 233/1/3
f 265/4/3 261/4/3 253/4/3
f 265/4/3 262/4/3 261/4/3
f 266/1/3 234/1/3 254/1/3
f 266/4/3 262/4/3 265/4/3
f 266/4/3 254/4/3 262/4/3
f 267/1/3 255/1/3 235/1/3
f 267/4/3 264/4/3 263/4/3
f 267/4/3 263/4/3 255/4/3
f 268/1/3 236/1/3 256/1/3
f 268/4/3 264/4/3 267/4/3
f 268/4/3 256/4/3 264/4/3
f 269/1/3 266/1/3 265/1/3
f 269/1/3 265/1/3 233/1/3
f 270/1/3 234/1/3 266/1/3
f 270/1/3 266/1/3 269/1/3
f 271/1/3 268/1/3 267/1/3
f 271/1/3 267/1/3 235/1/3
f 272/1/3 236/1/3 268/1/3
f 272/1/3 268/1/3 271/1/3
f 273/4/3 270/4/3 269/4/3
f 274/4/3 270/4/3 273/4/3
f 275/4/3 272/4/3 271/4/3
f 276/4/3 272/4/3 275/4/3
f 277/4/3 273/4/3 269/4/3
f 278/4/3 270/4/3 274/4/3
f 279/4/3 275/4/3 271/4/3
f 280/4/3 272/4/3 276/4/3
f 281/1/3 269/1/3 233/1/3
f 281/4/3 277/4/3 269/4/3
f 281/4/3 278/4/3 277/4/3
f 282/1/3 234/1/3 270/1/3
f 282/4/3 278/4/3 281/4/3
f 282/4/3 270/4/3 278/4/3
f 283/4/3 280/4/3 279/4/3
f 283/1/3 271/1/3 235/1/3
f 283/4/3 279/4/3 271/4/3
f 284/1/3 236/1/3 272/1/3
f 284/4/3 280/4/3 283/4/3
f 284/4/3 272/4/3 280/4/3
f 285/1/3 282/1/3 281/1/3
f 285/1/3 281/1/3 233/1/3
f 286/1/3 234/1/3 282/1/3
f 286/1/3 282/1/3 285/1/3
f 287/1/3 284/1/3 283/1/3
f 287/1/3 283/1/3 235/1/3
f 288/1/3 236/1/3 284/1/3
f 288/1/3 284/1/3 287/1/3
f 289/4/3 286/4/3 285/4/3
f 290/4/3 286/4/3 289/4/3
f 291/4/3 288/4/3 287/4/3
f 292/4/3 288/4/3 291/4/3
f 293/4/3 289/4/3 285/4/3
f 294/4/3 286/4/3 290/4/3
f 295/4/3 291/4/3 287/4/3
f 296/4/3 288/4/3 292/4/3
f 297/1/3 285/1/3 233/1/3
f 297/4/3 293/4/3 285/4/3
f 297/4/3 294/4/3 293/4/3
f 298/1/3 234/1/3 286/1/3
f 298/4/3 294/4/3 297/4/3
f 298/4/3 286/4/3 294/4/3
f 299/4/3 296/4/3 295/4/3
f 299/1/3 287/1/3 235/1/3
f 299/4/3 295/4/3 287/4/3
f 300/1/3 236/1/3 288/1/3
f 300/4/3 296/4/3 299/4/3
f 300/4/3 288/4/3 296/4/3
f 301/1/3 298/1/3 297/1/3
f 301/1/3 297/1/3 233/1/3
f 302/1/3 234/1/3 298/1/3
f 302/1/3 298/1/3 301/1/3
f 303/1/3 300/1/3 299/1/3
f 303/1/3 299/1/3 235/1/3
f 304/1/3 236/1/3 300/1/3
f 304/1/3 300/1/3 303/1/3
f 319/2/3 312/2/3 311/2/3
f 320/4/3 313/4/3 312/4/3
f 320/2/3 312/2/3 319/2/3
f 321/2/3 314/2/3 313/2/3
f 321/4/3 313/4/3 320/4/3
f 322/2/3 314/2/3 321/2/3
f 323/2/3 316/2/3 315/2/3
f 324/4/3 317/4/3 316/4/3
f 324/2/3 316/2/3 323/2/3
f 325/2/3 318/2/3 317/2/3
f 325/4/3 317/4/3 324/4/3
f 326/2/3 318/2/3 325/2/3
f 335/2/3 328/2/3 327/2/3
f 336/4/3 329/4/3 328/4/3
f 336/2/3 328/2/3 335/2/3
f 337/2/3 330/2/3 329/2/3
f 337/4/3 329/4/3 336/4/3
f 338/2/3 330/2/3 337/2/3
f 339/2/3 332/2/3 331/2/3
f 340/4/3 333/4/3 332/4/3
f 340/2/3 332/2/3 339/2/3
f 341/2/3 334/2/3 333/2/3
f 341/4/3 333/4/3 340/4/3
f 342/2/3 334/2/3 341/2/3
f 351/2/3 344/2/3 343/2/3
f 352/4/3 345/4/3 344/4/3
f 352/2/3 344/2/3 351/2/3
f 353/2/3 346/2/3 345/2/3
f 353/4/3 345/4/3 352/4/3
f 354/2/3 346/2/3 353/2/3
f 355/2/3 348/2/3 347/2/3
f 356/4/3 349/4/3 348/4/3
f 356/2/3 348/2/3 355/2/3
f 357/2/3 350/2/3 349/2/3
f 357/4/3 349/4/3 356/4/3
f 358/2/3 350/2/3 357/2/3
f 367/2/3 360/2/3 359/2/3
f 368/4/3 361/4/3 360/4/3
f 368/2/3 360/2/3 367/2/3
f 369/2/3 362/2/3 361/2/3
f 369/4/3 361/4/3 368/4/3
f 370/2/3 362/2/3 369/2/3
f 371/2/3 364/2/3 363/2/3
f 372/4/3 365/4/3 364/4/3
f 372/2/3 364/2/3 371/2/3
f 373/2/3 366/2/3 365/2/3
f 373/4/3 365/4/3 372/4/3
f 374/2/3 366/2/3 373/2/3
f 375/3/3 306/3/3 305/3/3
f 376/3/3 306/3/3 375/3/3
f 377/3/3 308/3/3 307/3/3
f 378/3/3 308/3/3 377/3/3
f 379/3/3 310/3/3 309/3/3
f 380/3/3 310/3/3 379/3/3
f 387/2/4 388/2/4 395/2/4
f 388/4/4 389/4/4 396/4/4
f 395/2/4 388/2/4 396/2/4
f 389/2/4 390/2/4 397/2/4
f 396/4/4 389/4/4 397/4/4
f 397/2/4 390/2/4 398/2/4
f 391/2/4 392/2/4 399/2/4
f 392/4/4 393/4/4 400/4/4
f 399/2/4 392/2/4 400/2/4
f 393/2/4 394/2/4 401/2/4
f 400/4/4 393/4/4 401/4/4
f 401/2/4 394/2/4 402/2/4
f 403/2/4 404/2/4 411/2/4
f 404/4/4 405/4/4 412/4/4
f 411/2/4 404/2/4 412/2/4
f 405/2/4 406/2/4 413/2/4
f 412/4/4 405/4/4 413/4/4
f 413/2/4 406/2/4 414/2/4
f 407/2/4 408/2/4 415/2/4
f 408/4/4 409/4/4 416/4/4
f 415/2/4 408/2/4 416/2/4
f 409/2/4 410/2/4 417/2/4
f 416/4/4 409/4/4 417/4/4
f 417/2/4 410/2/4 418/2/4
f 419/2/4 420/2/4 427/2/4
f 420/4/4 421/4/4 428/4/4
f 427/2/4 420/2/4 428/2/4
f 421/2/4 422/2/4 429/2/4
f 428/4/4 421/4/4 429/4/4
f 429/2/4 422/2/4 430/2/4
f 423/2/4 424/2/4 431/2/4
f 424/4/4 425/4/4 432/4/4
f 431/2/4 424/2/4 432/2/4
f 425/2/4 426/2/4 433/2/4
f 432/4/4 425/4/4 433/4/4
f 433/2/4 426/2/4 434/2/4
f 435/2/4 436/2/4 443/2/4
f 436/4/4 437/4/4 444/4/4
f 443/2/4 436/2/4 444/2/4
f 437/2/4 438/2/4 445/2/4
f 444/4/4 437/4/4 445/4/4
f 445/2/4 438/2/4 446/2/4
f 439/2/4 440/2/4 447/2/4
f 440/4/4 441/4/4 448/4/4
f 447/2/4 440/2/4 448/2/4
f 441/2/4 442/2/4 449/2/4
f 448/4/4 441/4/4 449/4/4
f 449/2/4 442/2/4 450/2/4
f 381/3/4 382/3/4 451/3/4
f 451/3/4 382/3/4 452/3/4
f 383/3/4 384/3/4 453/3/4
f 453/3/4 384/3/4 454/3/4
f 385/3/4 386/3/4 455/3/4
f 455/3/4 386/3/4 456/3/4
f 457/1/4 458/1/4 461/1/4
f 461/1/4 458/1/4 462/1/4
f 459/1/4 460/1/4 463/1/4
f 463/1/4 460/1/4 464/1/4
f 461/4/4 462/4/4 465/4/4
f 465/4/4 462/4/4 466/4/4
f 463/4/4 464/4/4 467/4/4
f 467/4/4 464/4/4 468/4/4
f 461/4/4 465/4/4 469/4/4
f 466/4/4 462/4/4 470/4/4
f 463/4/4 467/4/4 471/4/4
f 468/4/4 464/4/4 472/4/4
f 457/1/4 461/1/4 473/1/4
f 461/4/4 469/4/4 473/4/4
f 469/4/4 470/4/4 473/4/4
f 462/1/4 458/1/4 474/1/4
f 473/4/4 470/4/4 474/4/4
f 470/4/4 462/4/4 474/4/4
f 471/4/4 472/4/4 475/4/4
f 459/1/4 463/1/4 475/1/4
f 463/4/4 471/4/4 475/4/4
f 464/1/4 460/1/4 476/1/4
f 475/4/4 472/4/4 476/4/4
f 472/4/4 464/4/4 476/4/4
f 457/1/4 473/1/4 477/1/4
f 473/1/4 474/1/4 477/1/4
f 474/1/4 458/1/4 478/1/4
f 477/1/4 474/1/4 478/1/4
f 459/1/4 475/1/4 479/1/4
f 475/1/4 476/1/4 479/1/4
f 476/1/4 460/1/4 480/1/4
f 479/1/4 476/1/4 480/1/4
f 477/4/4 478/4/4 481/4/4
f 481/4/4 478/4/4 482/4/4
f 479/4/4 480/4/4 483/4/4
f 483/4/4 480/4/4 484/4/4
f 477/4/4 481/4/4 485/4/4
f 482/4/4 478/4/4 486/4/4
f 479/4/4 483/4/4 487/4/4
f 484/4/4 480/4/4 488/4/4
f 457/1/4 477/1/4 489/1/4
f 477/4/4 485/4/4 489/4/4
f 485/4/4 486/4/4 489/4/4
f 478/1/4 458/1/4 490/1/4
f 489/4/4 486/4/4 490/4/4
f 486/4/4 478/4/4 490/4/4
f 459/1/4 479/1/4 491/1/4
f 487/4/4 488/4/4 491/4/4
f 479/4/4 487/4/4 491/4/4
f 480/1/4 460/1/4 492/1/4
f 491/4/4 488/4/4 492/4/4
f 488/4/4 480/4/4 492/4/4
f 489/1/4 490/1/4 493/1/4
f 457/1/4 489/1/4 493/1/4
f 490/1/4 458/1/4 494/1/4
f 493/1/4 490/1/4 494/1/4
f 491/1/4 492/1/4 495/1/4
f 459/1/4 491/1/4 495/1/4
f 492/1/4 460/1/4 496/1/4
f 495/1/4 492/1/4 496/1/4
f 493/4/4 494/4/4 497/4/4
f 497/4/4 494/4/4 498/4/4
f 495/4/4 496/4/4 499/4/4
f 499/4/4 496/4/4 500/4/4
f 493/4/4 497/4/4 501/4/4
f 498/4/4 494/4/4 502/4/4
f 495/4/4 499/4/4 503/4/4
f 500/4/4 496/4/4 504/4/4
f 457/1/4 493/1/4 505/1/4
f 493/4/4 501/4/4 505/4/4
f 501/4/4 502/4/4 505/4/4
f 494/1/4 458/1/4 506/1/4
f 505/4/4 502/4/4 506/4/4
f 502/4/4 494/4/4 506/4/4
f 503/4/4 504/4/4 507/4/4
f 459/1/4 495/1/4 507/1/4
f 495/4/4 503/4/4 507/4/4
f 496/1/4 460/1/4 508/1/4
f 507/4/4 504/4/4 508/4/4
f 504/4/4 496/4/4 508/4/4
f 505/1/4 506/1/4 509/1/4
f 457/1/4 505/1/4 509/1/4
f 506/1/4 458/1/4 510/1/4
f 509/1/4 506/1/4 510/1/4
f 507/1/4 508/1/4 511/1/4
f 459/1/4 507/1/4 511/1/4
f 508/1/4 460/1/4 512/1/4
f 511/1/4 508/1/4 512/1/4
f 509/4/4 510/4/4 513/4/4
f 513/4/4 510/4/4 514/4/4
f 511/4/4 512/4/4 515/4/4
f 515/4/4 512/4/4 516/4/4
f 509/4/4 513/4/4 517/4/4
f 514/4/4 510/4/4 518/4/4
f 511/4/4 515/4/4 519/4/4
f 516/4/4 512/4/4 520/4/4
f 457/1/4 509/1/4 521/1/4
f 509/4/4 517/4/4 521/4/4
f 517/4/4 518/4/4 521/4/4
f 510/1/4 458/1/4 522/1/4
f 521/4/4 518/4/4 522/4/4
f 518/4/4 510/4/4 522/4/4
f 519/4/4 520/4/4 523/4/4
f 459/1/4 511/1/4 523/1/4
f 511/4/4 519/4/4 523/4/4
f 512/1/4 460/1/4 524/1/4
f 523/4/4 520/4/4 524/4/4
f 520/4/4 512/4/4 524/4/4
f 521/1/4 522/1/4 525/1/4
f 457/1/4 521/1/4 525/1/4
f 522/1/4 458/1/4 526/1/4
f 525/1/4 522/1/4 526/1/4
f 523/1/4 524/1/4 527/1/4
f 459/1/4 523/1/4 527/1/4
f 524/1/4 460/1/4 528/1/4
f 527/1/4 524/1/4 528/1/4
f 531/3/5 530/3/5 529/3/5
f 532/3/5 530/3/5 531/3/5
f 535/1/5 534/1/5 533/1/5
f 536/1/5 534/1/5 535/1/5
f 537/1/5 535/1/5 533/1/5
f 538/1/5 534/1/5 536/1/5
f 539/1/5 537/1/5 533/1/5
f 539/1/5 538/1/5 537/1/5
f 540/1/5 534/1/5 538/1/5
f 540/1/5 538/1/5 539/1/5
f 549/4/5 542/4/5 541/4/5
f 550/4/5 542/4/5 549/4/5
f 551/4/5 544/4/5 543/4/5
f 552/4/5 544/4/5 551/4/5
f 553/4/5 546/4/5 545/4/5
f 554/4/5 546/4/5 553/4/5
f 555/4/5 548/4/5 547/4/5
f 556/4/5 548/4/5 555/4/5
f 565/4/5 558/4/5 557/4/5
f 566/4/5 558/4/5 565/4/5
f 567/4/5 560/4/5 559/4/5
f 568/4/5 560/4/5 567/4/5
f 569/4/5 562/4/5 561/4/5
f 570/4/5 562/4/5 569/4/5
f 571/4/5 564/4/5 563/4/5
f 572/4/5 564/4/5 571/4/5
f 575/1/5 574/1/5 573/1/5
f 576/1/5 574/1/5 575/1/5
f 577/1/5 575/1/5 573/1/5
f 578/1/5 574/1/5 576/1/5
f 579/1/5 577/1/5 573/1/5
f 579/1/5 578/1/5 577/1/5
f 580/1/5 574/1/5 578/1/5
f 580/1/5 578/1/5 579/1/5
f 589/4/5 582/4/5 581/4/5
f 590/4/5 582/4/5 589/4/5
f 591/4/5 584/4/5 583/4/5
f 592/4/5 584/4/5 591/4/5
f 593/4/5 586/4/5 585/4/5
f 594/4/5 586/4/5 593/4/5
f 595/4/5 588/4/5 587/4/5
f 596/4/5 588/4/5 595/4/5
f 605/4/5 598/4/5 597/4/5
f 606/4/5 598/4/5 605/4/5
f 607/4/5 600/4/5 599/4/5
f 608/4/5 600/4/5 607/4/5
f 609/4/5 602/4/5 601/4/5
f 610/4/5 602/4/5 609/4/5
f 611/4/5 604/4/5 603/4/5
f 612/4/5 604/4/5 611/4/5
f 613/4/6 614/4/6 621/4/6
f 621/4/6 614/4/6 622/4/6
f 615/4/6 616/4/6 623/4/6
f 623/4/6 616/4/6 624/4/6
f 617/4/6 618/4/6 625/4/6
f 625/4/6 618/4/6 626/4/6
f 619/4/6 620/4/6 627/4/6
f 627/4/6 620/4/6 628/4/6
f 629/4/6 630/4/6 637/4/6
f 637/4/6 630/4/6 638/4/6
f 631/4/6 632/4/6 639/4/6
f 639/4/6 632/4/6 640/4/6
f 633/4/6 634/4/6 641/4/6
f 641/4/6 634/4/6 642/4/6
f 635/4/6 636/4/6 643/4/6
f 643/4/6 636/4/6 644/4/6
f 645/1/6 646/1/6 647/1/6
f 647/1/6 646/1/6 648/1/6
f 645/1/6 647/1/6 649/1/6
f 648/1/6 646/1/6 650/1/6
f 645/1/6 649/1/6 651/1/6
f 649/1/6 650/1/6 651/1/6
f 650/1/6 646/1/6 652/1/6
f 651/1/6 650/1/6 652/1/6
f 653/4/6 654/4/6 661/4/6
f 661/4/6 654/4/6 662/4/6
f 655/4/6 656/4/6 663/4/6
f 663/4/6 656/4/6 664/4/6
f 657/4/6 658/4/6 665/4/6
f 665/4/6 658/4/6 666/4/6
f 659/4/6 660/4/6 667/4/6
f 667/4/6 660/4/6 668/4/6
f 669/4/6 670/4/6 677/4/6
f 677/4/6 670/4/6 678/4/6
f 671/4/6 672/4/6 679/4/6
f 679/4/6 672/4/6 680/4/6
f 673/4/6 674/4/6 681/4/6
f 681/4/6 674/4/6 682/4/6
f 675/4/6 676/4/6 683/4/6
f 683/4/6 676/4/6 684/4/6
f 685/1/6 686/1/6 687/1/6
f 687/1/6 686/1/6 688/1/6
f 685/1/6 687/1/6 689/1/6
f 688/1/6 686/1/6 690/1/6
f 685/1/6 689/1/6 691/1/6
f 689/1/6 690/1/6 691/1/6
f 690/1/6 686/1/6 692/1/6
f 691/1/6 690/1/6 692/1/6
f 693/3/6 694/3/6 695/3/6
f 695/3/6 694/3/6 696/3/6
